<svg width="48" height="48" viewBox="0 0 48 48" fill="none" xmlns="http://www.w3.org/2000/svg">
<path d="M31.5 19C31.5 20.9891 30.7098 22.8968 29.3033 24.3033C27.8968 25.7098 25.9891 26.5 24 26.5C22.0109 26.5 20.1032 25.7098 18.6967 24.3033C17.2902 22.8968 16.5 20.9891 16.5 19C16.5 17.0109 17.2902 15.1032 18.6967 13.6967C20.1032 12.2902 22.0109 11.5 24 11.5C25.9891 11.5 27.8968 12.2902 29.3033 13.6967C30.7098 15.1032 31.5 17.0109 31.5 19Z" fill="#008673"/>
<path fill-rule="evenodd" clip-rule="evenodd" d="M4 24C4 18.6957 6.10714 13.6086 9.85786 9.85786C13.6086 6.10714 18.6957 4 24 4C29.3043 4 34.3914 6.10714 38.1421 9.85786C41.8929 13.6086 44 18.6957 44 24C44 29.3043 41.8929 34.3914 38.1421 38.1421C34.3914 41.8929 29.3043 44 24 44C18.6957 44 13.6086 41.8929 9.85786 38.1421C6.10714 34.3914 4 29.3043 4 24ZM24 6.5C20.7044 6.50018 17.4759 7.43091 14.686 9.18507C11.8961 10.9392 9.65821 13.4455 8.22991 16.4155C6.80161 19.3854 6.24097 22.6983 6.6125 25.9729C6.98403 29.2474 8.27263 32.3505 10.33 34.925C12.105 32.065 16.0125 29 24 29C31.9875 29 35.8925 32.0625 37.67 34.925C39.7274 32.3505 41.016 29.2474 41.3875 25.9729C41.759 22.6983 41.1984 19.3854 39.7701 16.4155C38.3418 13.4455 36.1039 10.9392 33.314 9.18507C30.5241 7.43091 27.2956 6.50018 24 6.5Z" fill="#008673"/>
</svg>
